<svg xmlns="http://www.w3.org/2000/svg" version="1.1" xmlns:xlink="http://www.w3.org/1999/xlink" xmlns:svgjs="http://svgjs.dev/svgjs" viewBox="0 0 800 800"><defs><linearGradient gradientTransform="rotate(270)" x1="50%" y1="0%" x2="50%" y2="100%" id="sssquiggly-grad"><stop stop-color="hsl(206, 75%, 49%)" stop-opacity="1" offset="0%"></stop><stop stop-color="hsl(331, 90%, 56%)" stop-opacity="1" offset="100%"></stop></linearGradient></defs><g stroke-width="2" stroke="url(#sssquiggly-grad)" fill="none" stroke-linecap="round" transform="matrix(1,0,0,1,0,-733.6869506835938)"><path d="M10,10C21.805555555555557,15.416666666666666,40.97222222222223,39.75,66.66666666666667,36C92.36111111111111,32.25,105.55555555555557,-4.25,133.33333333333334,-8C161.11111111111111,-11.75,172.22222222222223,18.833333333333332,200,18C227.77777777777777,17.166666666666668,238.8888888888889,-16.583333333333332,266.6666666666667,-12C294.44444444444446,-7.416666666666667,305.5555555555556,42.916666666666664,333.33333333333337,40C361.11111111111114,37.083333333333336,372.22222222222223,-25.791666666666668,400,-26C427.77777777777777,-26.208333333333332,438.8888888888889,32.958333333333336,466.6666666666667,39C494.44444444444446,45.041666666666664,505.5555555555556,2.375,533.3333333333334,3C561.1111111111111,3.625,572.2222222222222,44.916666666666664,600,42C627.7777777777778,39.083333333333336,638.8888888888889,-12.458333333333334,666.6666666666667,-11C694.4444444444446,-9.541666666666666,707.6388888888889,44.625,733.3333333333334,49C759.0277777777778,53.375,778.1944444444445,18.125,790,10"></path><path d="M10,10C21.805555555555557,15.416666666666666,40.97222222222223,39.75,66.66666666666667,36C92.36111111111111,32.25,105.55555555555557,-4.25,133.33333333333334,-8C161.11111111111111,-11.75,172.22222222222223,18.833333333333332,200,18C227.77777777777777,17.166666666666668,238.8888888888889,-16.583333333333332,266.6666666666667,-12C294.44444444444446,-7.416666666666667,305.5555555555556,42.916666666666664,333.33333333333337,40C361.11111111111114,37.083333333333336,372.22222222222223,-25.791666666666668,400,-26C427.77777777777777,-26.208333333333332,438.8888888888889,32.958333333333336,466.6666666666667,39C494.44444444444446,45.041666666666664,505.5555555555556,2.375,533.3333333333334,3C561.1111111111111,3.625,572.2222222222222,44.916666666666664,600,42C627.7777777777778,39.083333333333336,638.8888888888889,-12.458333333333334,666.6666666666667,-11C694.4444444444446,-9.541666666666666,707.6388888888889,44.625,733.3333333333334,49C759.0277777777778,53.375,778.1944444444445,18.125,790,10" transform="matrix(1,0,0,1,0,2244)"></path><path d="M10,10C21.805555555555557,15.416666666666666,40.97222222222223,39.75,66.66666666666667,36C92.36111111111111,32.25,105.55555555555557,-4.25,133.33333333333334,-8C161.11111111111111,-11.75,172.22222222222223,18.833333333333332,200,18C227.77777777777777,17.166666666666668,238.8888888888889,-16.583333333333332,266.6666666666667,-12C294.44444444444446,-7.416666666666667,305.5555555555556,42.916666666666664,333.33333333333337,40C361.11111111111114,37.083333333333336,372.22222222222223,-25.791666666666668,400,-26C427.77777777777777,-26.208333333333332,438.8888888888889,32.958333333333336,466.6666666666667,39C494.44444444444446,45.041666666666664,505.5555555555556,2.375,533.3333333333334,3C561.1111111111111,3.625,572.2222222222222,44.916666666666664,600,42C627.7777777777778,39.083333333333336,638.8888888888889,-12.458333333333334,666.6666666666667,-11C694.4444444444446,-9.541666666666666,707.6388888888889,44.625,733.3333333333334,49C759.0277777777778,53.375,778.1944444444445,18.125,790,10" transform="matrix(1,0,0,1,0,2178)"></path><path d="M10,10C21.805555555555557,15.416666666666666,40.97222222222223,39.75,66.66666666666667,36C92.36111111111111,32.25,105.55555555555557,-4.25,133.33333333333334,-8C161.11111111111111,-11.75,172.22222222222223,18.833333333333332,200,18C227.77777777777777,17.166666666666668,238.8888888888889,-16.583333333333332,266.6666666666667,-12C294.44444444444446,-7.416666666666667,305.5555555555556,42.916666666666664,333.33333333333337,40C361.11111111111114,37.083333333333336,372.22222222222223,-25.791666666666668,400,-26C427.77777777777777,-26.208333333333332,438.8888888888889,32.958333333333336,466.6666666666667,39C494.44444444444446,45.041666666666664,505.5555555555556,2.375,533.3333333333334,3C561.1111111111111,3.625,572.2222222222222,44.916666666666664,600,42C627.7777777777778,39.083333333333336,638.8888888888889,-12.458333333333334,666.6666666666667,-11C694.4444444444446,-9.541666666666666,707.6388888888889,44.625,733.3333333333334,49C759.0277777777778,53.375,778.1944444444445,18.125,790,10" transform="matrix(1,0,0,1,0,2112)"></path><path d="M10,10C21.805555555555557,15.416666666666666,40.97222222222223,39.75,66.66666666666667,36C92.36111111111111,32.25,105.55555555555557,-4.25,133.33333333333334,-8C161.11111111111111,-11.75,172.22222222222223,18.833333333333332,200,18C227.77777777777777,17.166666666666668,238.8888888888889,-16.583333333333332,266.6666666666667,-12C294.44444444444446,-7.416666666666667,305.5555555555556,42.916666666666664,333.33333333333337,40C361.11111111111114,37.083333333333336,372.22222222222223,-25.791666666666668,400,-26C427.77777777777777,-26.208333333333332,438.8888888888889,32.958333333333336,466.6666666666667,39C494.44444444444446,45.041666666666664,505.5555555555556,2.375,533.3333333333334,3C561.1111111111111,3.625,572.2222222222222,44.916666666666664,600,42C627.7777777777778,39.083333333333336,638.8888888888889,-12.458333333333334,666.6666666666667,-11C694.4444444444446,-9.541666666666666,707.6388888888889,44.625,733.3333333333334,49C759.0277777777778,53.375,778.1944444444445,18.125,790,10" transform="matrix(1,0,0,1,0,2046)"></path><path d="M10,10C21.805555555555557,15.416666666666666,40.97222222222223,39.75,66.66666666666667,36C92.36111111111111,32.25,105.55555555555557,-4.25,133.33333333333334,-8C161.11111111111111,-11.75,172.22222222222223,18.833333333333332,200,18C227.77777777777777,17.166666666666668,238.8888888888889,-16.583333333333332,266.6666666666667,-12C294.44444444444446,-7.416666666666667,305.5555555555556,42.916666666666664,333.33333333333337,40C361.11111111111114,37.083333333333336,372.22222222222223,-25.791666666666668,400,-26C427.77777777777777,-26.208333333333332,438.8888888888889,32.958333333333336,466.6666666666667,39C494.44444444444446,45.041666666666664,505.5555555555556,2.375,533.3333333333334,3C561.1111111111111,3.625,572.2222222222222,44.916666666666664,600,42C627.7777777777778,39.083333333333336,638.8888888888889,-12.458333333333334,666.6666666666667,-11C694.4444444444446,-9.541666666666666,707.6388888888889,44.625,733.3333333333334,49C759.0277777777778,53.375,778.1944444444445,18.125,790,10" transform="matrix(1,0,0,1,0,1980)"></path><path d="M10,10C21.805555555555557,15.416666666666666,40.97222222222223,39.75,66.66666666666667,36C92.36111111111111,32.25,105.55555555555557,-4.25,133.33333333333334,-8C161.11111111111111,-11.75,172.22222222222223,18.833333333333332,200,18C227.77777777777777,17.166666666666668,238.8888888888889,-16.583333333333332,266.6666666666667,-12C294.44444444444446,-7.416666666666667,305.5555555555556,42.916666666666664,333.33333333333337,40C361.11111111111114,37.083333333333336,372.22222222222223,-25.791666666666668,400,-26C427.77777777777777,-26.208333333333332,438.8888888888889,32.958333333333336,466.6666666666667,39C494.44444444444446,45.041666666666664,505.5555555555556,2.375,533.3333333333334,3C561.1111111111111,3.625,572.2222222222222,44.916666666666664,600,42C627.7777777777778,39.083333333333336,638.8888888888889,-12.458333333333334,666.6666666666667,-11C694.4444444444446,-9.541666666666666,707.6388888888889,44.625,733.3333333333334,49C759.0277777777778,53.375,778.1944444444445,18.125,790,10" transform="matrix(1,0,0,1,0,1914)"></path><path d="M10,10C21.805555555555557,15.416666666666666,40.97222222222223,39.75,66.66666666666667,36C92.36111111111111,32.25,105.55555555555557,-4.25,133.33333333333334,-8C161.11111111111111,-11.75,172.22222222222223,18.833333333333332,200,18C227.77777777777777,17.166666666666668,238.8888888888889,-16.583333333333332,266.6666666666667,-12C294.44444444444446,-7.416666666666667,305.5555555555556,42.916666666666664,333.33333333333337,40C361.11111111111114,37.083333333333336,372.22222222222223,-25.791666666666668,400,-26C427.77777777777777,-26.208333333333332,438.8888888888889,32.958333333333336,466.6666666666667,39C494.44444444444446,45.041666666666664,505.5555555555556,2.375,533.3333333333334,3C561.1111111111111,3.625,572.2222222222222,44.916666666666664,600,42C627.7777777777778,39.083333333333336,638.8888888888889,-12.458333333333334,666.6666666666667,-11C694.4444444444446,-9.541666666666666,707.6388888888889,44.625,733.3333333333334,49C759.0277777777778,53.375,778.1944444444445,18.125,790,10" transform="matrix(1,0,0,1,0,1848)"></path><path d="M10,10C21.805555555555557,15.416666666666666,40.97222222222223,39.75,66.66666666666667,36C92.36111111111111,32.25,105.55555555555557,-4.25,133.33333333333334,-8C161.11111111111111,-11.75,172.22222222222223,18.833333333333332,200,18C227.77777777777777,17.166666666666668,238.8888888888889,-16.583333333333332,266.6666666666667,-12C294.44444444444446,-7.416666666666667,305.5555555555556,42.916666666666664,333.33333333333337,40C361.11111111111114,37.083333333333336,372.22222222222223,-25.791666666666668,400,-26C427.77777777777777,-26.208333333333332,438.8888888888889,32.958333333333336,466.6666666666667,39C494.44444444444446,45.041666666666664,505.5555555555556,2.375,533.3333333333334,3C561.1111111111111,3.625,572.2222222222222,44.916666666666664,600,42C627.7777777777778,39.083333333333336,638.8888888888889,-12.458333333333334,666.6666666666667,-11C694.4444444444446,-9.541666666666666,707.6388888888889,44.625,733.3333333333334,49C759.0277777777778,53.375,778.1944444444445,18.125,790,10" transform="matrix(1,0,0,1,0,1782)"></path><path d="M10,10C21.805555555555557,15.416666666666666,40.97222222222223,39.75,66.66666666666667,36C92.36111111111111,32.25,105.55555555555557,-4.25,133.33333333333334,-8C161.11111111111111,-11.75,172.22222222222223,18.833333333333332,200,18C227.77777777777777,17.166666666666668,238.8888888888889,-16.583333333333332,266.6666666666667,-12C294.44444444444446,-7.416666666666667,305.5555555555556,42.916666666666664,333.33333333333337,40C361.11111111111114,37.083333333333336,372.22222222222223,-25.791666666666668,400,-26C427.77777777777777,-26.208333333333332,438.8888888888889,32.958333333333336,466.6666666666667,39C494.44444444444446,45.041666666666664,505.5555555555556,2.375,533.3333333333334,3C561.1111111111111,3.625,572.2222222222222,44.916666666666664,600,42C627.7777777777778,39.083333333333336,638.8888888888889,-12.458333333333334,666.6666666666667,-11C694.4444444444446,-9.541666666666666,707.6388888888889,44.625,733.3333333333334,49C759.0277777777778,53.375,778.1944444444445,18.125,790,10" transform="matrix(1,0,0,1,0,1716)"></path><path d="M10,10C21.805555555555557,15.416666666666666,40.97222222222223,39.75,66.66666666666667,36C92.36111111111111,32.25,105.55555555555557,-4.25,133.33333333333334,-8C161.11111111111111,-11.75,172.22222222222223,18.833333333333332,200,18C227.77777777777777,17.166666666666668,238.8888888888889,-16.583333333333332,266.6666666666667,-12C294.44444444444446,-7.416666666666667,305.5555555555556,42.916666666666664,333.33333333333337,40C361.11111111111114,37.083333333333336,372.22222222222223,-25.791666666666668,400,-26C427.77777777777777,-26.208333333333332,438.8888888888889,32.958333333333336,466.6666666666667,39C494.44444444444446,45.041666666666664,505.5555555555556,2.375,533.3333333333334,3C561.1111111111111,3.625,572.2222222222222,44.916666666666664,600,42C627.7777777777778,39.083333333333336,638.8888888888889,-12.458333333333334,666.6666666666667,-11C694.4444444444446,-9.541666666666666,707.6388888888889,44.625,733.3333333333334,49C759.0277777777778,53.375,778.1944444444445,18.125,790,10" transform="matrix(1,0,0,1,0,1650)"></path><path d="M10,10C21.805555555555557,15.416666666666666,40.97222222222223,39.75,66.66666666666667,36C92.36111111111111,32.25,105.55555555555557,-4.25,133.33333333333334,-8C161.11111111111111,-11.75,172.22222222222223,18.833333333333332,200,18C227.77777777777777,17.166666666666668,238.8888888888889,-16.583333333333332,266.6666666666667,-12C294.44444444444446,-7.416666666666667,305.5555555555556,42.916666666666664,333.33333333333337,40C361.11111111111114,37.083333333333336,372.22222222222223,-25.791666666666668,400,-26C427.77777777777777,-26.208333333333332,438.8888888888889,32.958333333333336,466.6666666666667,39C494.44444444444446,45.041666666666664,505.5555555555556,2.375,533.3333333333334,3C561.1111111111111,3.625,572.2222222222222,44.916666666666664,600,42C627.7777777777778,39.083333333333336,638.8888888888889,-12.458333333333334,666.6666666666667,-11C694.4444444444446,-9.541666666666666,707.6388888888889,44.625,733.3333333333334,49C759.0277777777778,53.375,778.1944444444445,18.125,790,10" transform="matrix(1,0,0,1,0,1584)"></path><path d="M10,10C21.805555555555557,15.416666666666666,40.97222222222223,39.75,66.66666666666667,36C92.36111111111111,32.25,105.55555555555557,-4.25,133.33333333333334,-8C161.11111111111111,-11.75,172.22222222222223,18.833333333333332,200,18C227.77777777777777,17.166666666666668,238.8888888888889,-16.583333333333332,266.6666666666667,-12C294.44444444444446,-7.416666666666667,305.5555555555556,42.916666666666664,333.33333333333337,40C361.11111111111114,37.083333333333336,372.22222222222223,-25.791666666666668,400,-26C427.77777777777777,-26.208333333333332,438.8888888888889,32.958333333333336,466.6666666666667,39C494.44444444444446,45.041666666666664,505.5555555555556,2.375,533.3333333333334,3C561.1111111111111,3.625,572.2222222222222,44.916666666666664,600,42C627.7777777777778,39.083333333333336,638.8888888888889,-12.458333333333334,666.6666666666667,-11C694.4444444444446,-9.541666666666666,707.6388888888889,44.625,733.3333333333334,49C759.0277777777778,53.375,778.1944444444445,18.125,790,10" transform="matrix(1,0,0,1,0,1518)"></path><path d="M10,10C21.805555555555557,15.416666666666666,40.97222222222223,39.75,66.66666666666667,36C92.36111111111111,32.25,105.55555555555557,-4.25,133.33333333333334,-8C161.11111111111111,-11.75,172.22222222222223,18.833333333333332,200,18C227.77777777777777,17.166666666666668,238.8888888888889,-16.583333333333332,266.6666666666667,-12C294.44444444444446,-7.416666666666667,305.5555555555556,42.916666666666664,333.33333333333337,40C361.11111111111114,37.083333333333336,372.22222222222223,-25.791666666666668,400,-26C427.77777777777777,-26.208333333333332,438.8888888888889,32.958333333333336,466.6666666666667,39C494.44444444444446,45.041666666666664,505.5555555555556,2.375,533.3333333333334,3C561.1111111111111,3.625,572.2222222222222,44.916666666666664,600,42C627.7777777777778,39.083333333333336,638.8888888888889,-12.458333333333334,666.6666666666667,-11C694.4444444444446,-9.541666666666666,707.6388888888889,44.625,733.3333333333334,49C759.0277777777778,53.375,778.1944444444445,18.125,790,10" transform="matrix(1,0,0,1,0,1452)"></path><path d="M10,10C21.805555555555557,15.416666666666666,40.97222222222223,39.75,66.66666666666667,36C92.36111111111111,32.25,105.55555555555557,-4.25,133.33333333333334,-8C161.11111111111111,-11.75,172.22222222222223,18.833333333333332,200,18C227.77777777777777,17.166666666666668,238.8888888888889,-16.583333333333332,266.6666666666667,-12C294.44444444444446,-7.416666666666667,305.5555555555556,42.916666666666664,333.33333333333337,40C361.11111111111114,37.083333333333336,372.22222222222223,-25.791666666666668,400,-26C427.77777777777777,-26.208333333333332,438.8888888888889,32.958333333333336,466.6666666666667,39C494.44444444444446,45.041666666666664,505.5555555555556,2.375,533.3333333333334,3C561.1111111111111,3.625,572.2222222222222,44.916666666666664,600,42C627.7777777777778,39.083333333333336,638.8888888888889,-12.458333333333334,666.6666666666667,-11C694.4444444444446,-9.541666666666666,707.6388888888889,44.625,733.3333333333334,49C759.0277777777778,53.375,778.1944444444445,18.125,790,10" transform="matrix(1,0,0,1,0,1386)"></path><path d="M10,10C21.805555555555557,15.416666666666666,40.97222222222223,39.75,66.66666666666667,36C92.36111111111111,32.25,105.55555555555557,-4.25,133.33333333333334,-8C161.11111111111111,-11.75,172.22222222222223,18.833333333333332,200,18C227.77777777777777,17.166666666666668,238.8888888888889,-16.583333333333332,266.6666666666667,-12C294.44444444444446,-7.416666666666667,305.5555555555556,42.916666666666664,333.33333333333337,40C361.11111111111114,37.083333333333336,372.22222222222223,-25.791666666666668,400,-26C427.77777777777777,-26.208333333333332,438.8888888888889,32.958333333333336,466.6666666666667,39C494.44444444444446,45.041666666666664,505.5555555555556,2.375,533.3333333333334,3C561.1111111111111,3.625,572.2222222222222,44.916666666666664,600,42C627.7777777777778,39.083333333333336,638.8888888888889,-12.458333333333334,666.6666666666667,-11C694.4444444444446,-9.541666666666666,707.6388888888889,44.625,733.3333333333334,49C759.0277777777778,53.375,778.1944444444445,18.125,790,10" transform="matrix(1,0,0,1,0,1320)"></path><path d="M10,10C21.805555555555557,15.416666666666666,40.97222222222223,39.75,66.66666666666667,36C92.36111111111111,32.25,105.55555555555557,-4.25,133.33333333333334,-8C161.11111111111111,-11.75,172.22222222222223,18.833333333333332,200,18C227.77777777777777,17.166666666666668,238.8888888888889,-16.583333333333332,266.6666666666667,-12C294.44444444444446,-7.416666666666667,305.5555555555556,42.916666666666664,333.33333333333337,40C361.11111111111114,37.083333333333336,372.22222222222223,-25.791666666666668,400,-26C427.77777777777777,-26.208333333333332,438.8888888888889,32.958333333333336,466.6666666666667,39C494.44444444444446,45.041666666666664,505.5555555555556,2.375,533.3333333333334,3C561.1111111111111,3.625,572.2222222222222,44.916666666666664,600,42C627.7777777777778,39.083333333333336,638.8888888888889,-12.458333333333334,666.6666666666667,-11C694.4444444444446,-9.541666666666666,707.6388888888889,44.625,733.3333333333334,49C759.0277777777778,53.375,778.1944444444445,18.125,790,10" transform="matrix(1,0,0,1,0,1254)"></path><path d="M10,10C21.805555555555557,15.416666666666666,40.97222222222223,39.75,66.66666666666667,36C92.36111111111111,32.25,105.55555555555557,-4.25,133.33333333333334,-8C161.11111111111111,-11.75,172.22222222222223,18.833333333333332,200,18C227.77777777777777,17.166666666666668,238.8888888888889,-16.583333333333332,266.6666666666667,-12C294.44444444444446,-7.416666666666667,305.5555555555556,42.916666666666664,333.33333333333337,40C361.11111111111114,37.083333333333336,372.22222222222223,-25.791666666666668,400,-26C427.77777777777777,-26.208333333333332,438.8888888888889,32.958333333333336,466.6666666666667,39C494.44444444444446,45.041666666666664,505.5555555555556,2.375,533.3333333333334,3C561.1111111111111,3.625,572.2222222222222,44.916666666666664,600,42C627.7777777777778,39.083333333333336,638.8888888888889,-12.458333333333334,666.6666666666667,-11C694.4444444444446,-9.541666666666666,707.6388888888889,44.625,733.3333333333334,49C759.0277777777778,53.375,778.1944444444445,18.125,790,10" transform="matrix(1,0,0,1,0,1188)"></path><path d="M10,10C21.805555555555557,15.416666666666666,40.97222222222223,39.75,66.66666666666667,36C92.36111111111111,32.25,105.55555555555557,-4.25,133.33333333333334,-8C161.11111111111111,-11.75,172.22222222222223,18.833333333333332,200,18C227.77777777777777,17.166666666666668,238.8888888888889,-16.583333333333332,266.6666666666667,-12C294.44444444444446,-7.416666666666667,305.5555555555556,42.916666666666664,333.33333333333337,40C361.11111111111114,37.083333333333336,372.22222222222223,-25.791666666666668,400,-26C427.77777777777777,-26.208333333333332,438.8888888888889,32.958333333333336,466.6666666666667,39C494.44444444444446,45.041666666666664,505.5555555555556,2.375,533.3333333333334,3C561.1111111111111,3.625,572.2222222222222,44.916666666666664,600,42C627.7777777777778,39.083333333333336,638.8888888888889,-12.458333333333334,666.6666666666667,-11C694.4444444444446,-9.541666666666666,707.6388888888889,44.625,733.3333333333334,49C759.0277777777778,53.375,778.1944444444445,18.125,790,10" transform="matrix(1,0,0,1,0,1122)"></path><path d="M10,10C21.805555555555557,15.416666666666666,40.97222222222223,39.75,66.66666666666667,36C92.36111111111111,32.25,105.55555555555557,-4.25,133.33333333333334,-8C161.11111111111111,-11.75,172.22222222222223,18.833333333333332,200,18C227.77777777777777,17.166666666666668,238.8888888888889,-16.583333333333332,266.6666666666667,-12C294.44444444444446,-7.416666666666667,305.5555555555556,42.916666666666664,333.33333333333337,40C361.11111111111114,37.083333333333336,372.22222222222223,-25.791666666666668,400,-26C427.77777777777777,-26.208333333333332,438.8888888888889,32.958333333333336,466.6666666666667,39C494.44444444444446,45.041666666666664,505.5555555555556,2.375,533.3333333333334,3C561.1111111111111,3.625,572.2222222222222,44.916666666666664,600,42C627.7777777777778,39.083333333333336,638.8888888888889,-12.458333333333334,666.6666666666667,-11C694.4444444444446,-9.541666666666666,707.6388888888889,44.625,733.3333333333334,49C759.0277777777778,53.375,778.1944444444445,18.125,790,10" transform="matrix(1,0,0,1,0,1056)"></path><path d="M10,10C21.805555555555557,15.416666666666666,40.97222222222223,39.75,66.66666666666667,36C92.36111111111111,32.25,105.55555555555557,-4.25,133.33333333333334,-8C161.11111111111111,-11.75,172.22222222222223,18.833333333333332,200,18C227.77777777777777,17.166666666666668,238.8888888888889,-16.583333333333332,266.6666666666667,-12C294.44444444444446,-7.416666666666667,305.5555555555556,42.916666666666664,333.33333333333337,40C361.11111111111114,37.083333333333336,372.22222222222223,-25.791666666666668,400,-26C427.77777777777777,-26.208333333333332,438.8888888888889,32.958333333333336,466.6666666666667,39C494.44444444444446,45.041666666666664,505.5555555555556,2.375,533.3333333333334,3C561.1111111111111,3.625,572.2222222222222,44.916666666666664,600,42C627.7777777777778,39.083333333333336,638.8888888888889,-12.458333333333334,666.6666666666667,-11C694.4444444444446,-9.541666666666666,707.6388888888889,44.625,733.3333333333334,49C759.0277777777778,53.375,778.1944444444445,18.125,790,10" transform="matrix(1,0,0,1,0,990)"></path><path d="M10,10C21.805555555555557,15.416666666666666,40.97222222222223,39.75,66.66666666666667,36C92.36111111111111,32.25,105.55555555555557,-4.25,133.33333333333334,-8C161.11111111111111,-11.75,172.22222222222223,18.833333333333332,200,18C227.77777777777777,17.166666666666668,238.8888888888889,-16.583333333333332,266.6666666666667,-12C294.44444444444446,-7.416666666666667,305.5555555555556,42.916666666666664,333.33333333333337,40C361.11111111111114,37.083333333333336,372.22222222222223,-25.791666666666668,400,-26C427.77777777777777,-26.208333333333332,438.8888888888889,32.958333333333336,466.6666666666667,39C494.44444444444446,45.041666666666664,505.5555555555556,2.375,533.3333333333334,3C561.1111111111111,3.625,572.2222222222222,44.916666666666664,600,42C627.7777777777778,39.083333333333336,638.8888888888889,-12.458333333333334,666.6666666666667,-11C694.4444444444446,-9.541666666666666,707.6388888888889,44.625,733.3333333333334,49C759.0277777777778,53.375,778.1944444444445,18.125,790,10" transform="matrix(1,0,0,1,0,924)"></path><path d="M10,10C21.805555555555557,15.416666666666666,40.97222222222223,39.75,66.66666666666667,36C92.36111111111111,32.25,105.55555555555557,-4.25,133.33333333333334,-8C161.11111111111111,-11.75,172.22222222222223,18.833333333333332,200,18C227.77777777777777,17.166666666666668,238.8888888888889,-16.583333333333332,266.6666666666667,-12C294.44444444444446,-7.416666666666667,305.5555555555556,42.916666666666664,333.33333333333337,40C361.11111111111114,37.083333333333336,372.22222222222223,-25.791666666666668,400,-26C427.77777777777777,-26.208333333333332,438.8888888888889,32.958333333333336,466.6666666666667,39C494.44444444444446,45.041666666666664,505.5555555555556,2.375,533.3333333333334,3C561.1111111111111,3.625,572.2222222222222,44.916666666666664,600,42C627.7777777777778,39.083333333333336,638.8888888888889,-12.458333333333334,666.6666666666667,-11C694.4444444444446,-9.541666666666666,707.6388888888889,44.625,733.3333333333334,49C759.0277777777778,53.375,778.1944444444445,18.125,790,10" transform="matrix(1,0,0,1,0,858)"></path><path d="M10,10C21.805555555555557,15.416666666666666,40.97222222222223,39.75,66.66666666666667,36C92.36111111111111,32.25,105.55555555555557,-4.25,133.33333333333334,-8C161.11111111111111,-11.75,172.22222222222223,18.833333333333332,200,18C227.77777777777777,17.166666666666668,238.8888888888889,-16.583333333333332,266.6666666666667,-12C294.44444444444446,-7.416666666666667,305.5555555555556,42.916666666666664,333.33333333333337,40C361.11111111111114,37.083333333333336,372.22222222222223,-25.791666666666668,400,-26C427.77777777777777,-26.208333333333332,438.8888888888889,32.958333333333336,466.6666666666667,39C494.44444444444446,45.041666666666664,505.5555555555556,2.375,533.3333333333334,3C561.1111111111111,3.625,572.2222222222222,44.916666666666664,600,42C627.7777777777778,39.083333333333336,638.8888888888889,-12.458333333333334,666.6666666666667,-11C694.4444444444446,-9.541666666666666,707.6388888888889,44.625,733.3333333333334,49C759.0277777777778,53.375,778.1944444444445,18.125,790,10" transform="matrix(1,0,0,1,0,792)"></path><path d="M10,10C21.805555555555557,15.416666666666666,40.97222222222223,39.75,66.66666666666667,36C92.36111111111111,32.25,105.55555555555557,-4.25,133.33333333333334,-8C161.11111111111111,-11.75,172.22222222222223,18.833333333333332,200,18C227.77777777777777,17.166666666666668,238.8888888888889,-16.583333333333332,266.6666666666667,-12C294.44444444444446,-7.416666666666667,305.5555555555556,42.916666666666664,333.33333333333337,40C361.11111111111114,37.083333333333336,372.22222222222223,-25.791666666666668,400,-26C427.77777777777777,-26.208333333333332,438.8888888888889,32.958333333333336,466.6666666666667,39C494.44444444444446,45.041666666666664,505.5555555555556,2.375,533.3333333333334,3C561.1111111111111,3.625,572.2222222222222,44.916666666666664,600,42C627.7777777777778,39.083333333333336,638.8888888888889,-12.458333333333334,666.6666666666667,-11C694.4444444444446,-9.541666666666666,707.6388888888889,44.625,733.3333333333334,49C759.0277777777778,53.375,778.1944444444445,18.125,790,10" transform="matrix(1,0,0,1,0,726)"></path><path d="M10,10C21.805555555555557,15.416666666666666,40.97222222222223,39.75,66.66666666666667,36C92.36111111111111,32.25,105.55555555555557,-4.25,133.33333333333334,-8C161.11111111111111,-11.75,172.22222222222223,18.833333333333332,200,18C227.77777777777777,17.166666666666668,238.8888888888889,-16.583333333333332,266.6666666666667,-12C294.44444444444446,-7.416666666666667,305.5555555555556,42.916666666666664,333.33333333333337,40C361.11111111111114,37.083333333333336,372.22222222222223,-25.791666666666668,400,-26C427.77777777777777,-26.208333333333332,438.8888888888889,32.958333333333336,466.6666666666667,39C494.44444444444446,45.041666666666664,505.5555555555556,2.375,533.3333333333334,3C561.1111111111111,3.625,572.2222222222222,44.916666666666664,600,42C627.7777777777778,39.083333333333336,638.8888888888889,-12.458333333333334,666.6666666666667,-11C694.4444444444446,-9.541666666666666,707.6388888888889,44.625,733.3333333333334,49C759.0277777777778,53.375,778.1944444444445,18.125,790,10" transform="matrix(1,0,0,1,0,660)"></path><path d="M10,10C21.805555555555557,15.416666666666666,40.97222222222223,39.75,66.66666666666667,36C92.36111111111111,32.25,105.55555555555557,-4.25,133.33333333333334,-8C161.11111111111111,-11.75,172.22222222222223,18.833333333333332,200,18C227.77777777777777,17.166666666666668,238.8888888888889,-16.583333333333332,266.6666666666667,-12C294.44444444444446,-7.416666666666667,305.5555555555556,42.916666666666664,333.33333333333337,40C361.11111111111114,37.083333333333336,372.22222222222223,-25.791666666666668,400,-26C427.77777777777777,-26.208333333333332,438.8888888888889,32.958333333333336,466.6666666666667,39C494.44444444444446,45.041666666666664,505.5555555555556,2.375,533.3333333333334,3C561.1111111111111,3.625,572.2222222222222,44.916666666666664,600,42C627.7777777777778,39.083333333333336,638.8888888888889,-12.458333333333334,666.6666666666667,-11C694.4444444444446,-9.541666666666666,707.6388888888889,44.625,733.3333333333334,49C759.0277777777778,53.375,778.1944444444445,18.125,790,10" transform="matrix(1,0,0,1,0,594)"></path><path d="M10,10C21.805555555555557,15.416666666666666,40.97222222222223,39.75,66.66666666666667,36C92.36111111111111,32.25,105.55555555555557,-4.25,133.33333333333334,-8C161.11111111111111,-11.75,172.22222222222223,18.833333333333332,200,18C227.77777777777777,17.166666666666668,238.8888888888889,-16.583333333333332,266.6666666666667,-12C294.44444444444446,-7.416666666666667,305.5555555555556,42.916666666666664,333.33333333333337,40C361.11111111111114,37.083333333333336,372.22222222222223,-25.791666666666668,400,-26C427.77777777777777,-26.208333333333332,438.8888888888889,32.958333333333336,466.6666666666667,39C494.44444444444446,45.041666666666664,505.5555555555556,2.375,533.3333333333334,3C561.1111111111111,3.625,572.2222222222222,44.916666666666664,600,42C627.7777777777778,39.083333333333336,638.8888888888889,-12.458333333333334,666.6666666666667,-11C694.4444444444446,-9.541666666666666,707.6388888888889,44.625,733.3333333333334,49C759.0277777777778,53.375,778.1944444444445,18.125,790,10" transform="matrix(1,0,0,1,0,528)"></path><path d="M10,10C21.805555555555557,15.416666666666666,40.97222222222223,39.75,66.66666666666667,36C92.36111111111111,32.25,105.55555555555557,-4.25,133.33333333333334,-8C161.11111111111111,-11.75,172.22222222222223,18.833333333333332,200,18C227.77777777777777,17.166666666666668,238.8888888888889,-16.583333333333332,266.6666666666667,-12C294.44444444444446,-7.416666666666667,305.5555555555556,42.916666666666664,333.33333333333337,40C361.11111111111114,37.083333333333336,372.22222222222223,-25.791666666666668,400,-26C427.77777777777777,-26.208333333333332,438.8888888888889,32.958333333333336,466.6666666666667,39C494.44444444444446,45.041666666666664,505.5555555555556,2.375,533.3333333333334,3C561.1111111111111,3.625,572.2222222222222,44.916666666666664,600,42C627.7777777777778,39.083333333333336,638.8888888888889,-12.458333333333334,666.6666666666667,-11C694.4444444444446,-9.541666666666666,707.6388888888889,44.625,733.3333333333334,49C759.0277777777778,53.375,778.1944444444445,18.125,790,10" transform="matrix(1,0,0,1,0,462)"></path><path d="M10,10C21.805555555555557,15.416666666666666,40.97222222222223,39.75,66.66666666666667,36C92.36111111111111,32.25,105.55555555555557,-4.25,133.33333333333334,-8C161.11111111111111,-11.75,172.22222222222223,18.833333333333332,200,18C227.77777777777777,17.166666666666668,238.8888888888889,-16.583333333333332,266.6666666666667,-12C294.44444444444446,-7.416666666666667,305.5555555555556,42.916666666666664,333.33333333333337,40C361.11111111111114,37.083333333333336,372.22222222222223,-25.791666666666668,400,-26C427.77777777777777,-26.208333333333332,438.8888888888889,32.958333333333336,466.6666666666667,39C494.44444444444446,45.041666666666664,505.5555555555556,2.375,533.3333333333334,3C561.1111111111111,3.625,572.2222222222222,44.916666666666664,600,42C627.7777777777778,39.083333333333336,638.8888888888889,-12.458333333333334,666.6666666666667,-11C694.4444444444446,-9.541666666666666,707.6388888888889,44.625,733.3333333333334,49C759.0277777777778,53.375,778.1944444444445,18.125,790,10" transform="matrix(1,0,0,1,0,396)"></path><path d="M10,10C21.805555555555557,15.416666666666666,40.97222222222223,39.75,66.66666666666667,36C92.36111111111111,32.25,105.55555555555557,-4.25,133.33333333333334,-8C161.11111111111111,-11.75,172.22222222222223,18.833333333333332,200,18C227.77777777777777,17.166666666666668,238.8888888888889,-16.583333333333332,266.6666666666667,-12C294.44444444444446,-7.416666666666667,305.5555555555556,42.916666666666664,333.33333333333337,40C361.11111111111114,37.083333333333336,372.22222222222223,-25.791666666666668,400,-26C427.77777777777777,-26.208333333333332,438.8888888888889,32.958333333333336,466.6666666666667,39C494.44444444444446,45.041666666666664,505.5555555555556,2.375,533.3333333333334,3C561.1111111111111,3.625,572.2222222222222,44.916666666666664,600,42C627.7777777777778,39.083333333333336,638.8888888888889,-12.458333333333334,666.6666666666667,-11C694.4444444444446,-9.541666666666666,707.6388888888889,44.625,733.3333333333334,49C759.0277777777778,53.375,778.1944444444445,18.125,790,10" transform="matrix(1,0,0,1,0,330)"></path><path d="M10,10C21.805555555555557,15.416666666666666,40.97222222222223,39.75,66.66666666666667,36C92.36111111111111,32.25,105.55555555555557,-4.25,133.33333333333334,-8C161.11111111111111,-11.75,172.22222222222223,18.833333333333332,200,18C227.77777777777777,17.166666666666668,238.8888888888889,-16.583333333333332,266.6666666666667,-12C294.44444444444446,-7.416666666666667,305.5555555555556,42.916666666666664,333.33333333333337,40C361.11111111111114,37.083333333333336,372.22222222222223,-25.791666666666668,400,-26C427.77777777777777,-26.208333333333332,438.8888888888889,32.958333333333336,466.6666666666667,39C494.44444444444446,45.041666666666664,505.5555555555556,2.375,533.3333333333334,3C561.1111111111111,3.625,572.2222222222222,44.916666666666664,600,42C627.7777777777778,39.083333333333336,638.8888888888889,-12.458333333333334,666.6666666666667,-11C694.4444444444446,-9.541666666666666,707.6388888888889,44.625,733.3333333333334,49C759.0277777777778,53.375,778.1944444444445,18.125,790,10" transform="matrix(1,0,0,1,0,264)"></path><path d="M10,10C21.805555555555557,15.416666666666666,40.97222222222223,39.75,66.66666666666667,36C92.36111111111111,32.25,105.55555555555557,-4.25,133.33333333333334,-8C161.11111111111111,-11.75,172.22222222222223,18.833333333333332,200,18C227.77777777777777,17.166666666666668,238.8888888888889,-16.583333333333332,266.6666666666667,-12C294.44444444444446,-7.416666666666667,305.5555555555556,42.916666666666664,333.33333333333337,40C361.11111111111114,37.083333333333336,372.22222222222223,-25.791666666666668,400,-26C427.77777777777777,-26.208333333333332,438.8888888888889,32.958333333333336,466.6666666666667,39C494.44444444444446,45.041666666666664,505.5555555555556,2.375,533.3333333333334,3C561.1111111111111,3.625,572.2222222222222,44.916666666666664,600,42C627.7777777777778,39.083333333333336,638.8888888888889,-12.458333333333334,666.6666666666667,-11C694.4444444444446,-9.541666666666666,707.6388888888889,44.625,733.3333333333334,49C759.0277777777778,53.375,778.1944444444445,18.125,790,10" transform="matrix(1,0,0,1,0,198)"></path><path d="M10,10C21.805555555555557,15.416666666666666,40.97222222222223,39.75,66.66666666666667,36C92.36111111111111,32.25,105.55555555555557,-4.25,133.33333333333334,-8C161.11111111111111,-11.75,172.22222222222223,18.833333333333332,200,18C227.77777777777777,17.166666666666668,238.8888888888889,-16.583333333333332,266.6666666666667,-12C294.44444444444446,-7.416666666666667,305.5555555555556,42.916666666666664,333.33333333333337,40C361.11111111111114,37.083333333333336,372.22222222222223,-25.791666666666668,400,-26C427.77777777777777,-26.208333333333332,438.8888888888889,32.958333333333336,466.6666666666667,39C494.44444444444446,45.041666666666664,505.5555555555556,2.375,533.3333333333334,3C561.1111111111111,3.625,572.2222222222222,44.916666666666664,600,42C627.7777777777778,39.083333333333336,638.8888888888889,-12.458333333333334,666.6666666666667,-11C694.4444444444446,-9.541666666666666,707.6388888888889,44.625,733.3333333333334,49C759.0277777777778,53.375,778.1944444444445,18.125,790,10" transform="matrix(1,0,0,1,0,132)"></path><path d="M10,10C21.805555555555557,15.416666666666666,40.97222222222223,39.75,66.66666666666667,36C92.36111111111111,32.25,105.55555555555557,-4.25,133.33333333333334,-8C161.11111111111111,-11.75,172.22222222222223,18.833333333333332,200,18C227.77777777777777,17.166666666666668,238.8888888888889,-16.583333333333332,266.6666666666667,-12C294.44444444444446,-7.416666666666667,305.5555555555556,42.916666666666664,333.33333333333337,40C361.11111111111114,37.083333333333336,372.22222222222223,-25.791666666666668,400,-26C427.77777777777777,-26.208333333333332,438.8888888888889,32.958333333333336,466.6666666666667,39C494.44444444444446,45.041666666666664,505.5555555555556,2.375,533.3333333333334,3C561.1111111111111,3.625,572.2222222222222,44.916666666666664,600,42C627.7777777777778,39.083333333333336,638.8888888888889,-12.458333333333334,666.6666666666667,-11C694.4444444444446,-9.541666666666666,707.6388888888889,44.625,733.3333333333334,49C759.0277777777778,53.375,778.1944444444445,18.125,790,10" transform="matrix(1,0,0,1,0,66)"></path></g></svg>